<?xml version="1.0" standalone="no"?>
<!DOCTYPE svg PUBLIC "-//W3C//DTD SVG 20010904//EN"
 "http://www.w3.org/TR/2001/REC-SVG-20010904/DTD/svg10.dtd">
<svg version="1.0" xmlns="http://www.w3.org/2000/svg"
 width="500.000000pt" height="500.000000pt" viewBox="0 0 500.000000 500.000000"
 preserveAspectRatio="xMidYMid meet">

<g transform="translate(0.000000,500.000000) scale(0.100000,-0.100000)"
fill="#000000" stroke="none">
<path d="M2088 3203 c-21 -2 -38 -8 -38 -13 0 -4 22 -68 49 -142 l48 -133 64
-12 c35 -6 75 -16 89 -21 46 -18 109 -71 132 -112 l23 -40 88 0 87 0 0 -215 0
-215 -88 0 -88 0 -27 -40 -26 -40 56 -155 56 -154 27 14 c15 8 42 26 59 41
l31 26 0 -76 0 -76 165 0 165 0 0 138 0 137 -172 473 -172 472 -62 41 c-80 52
-176 85 -284 98 -84 11 -109 11 -182 4z"/>
<path d="M1925 3163 c-190 -70 -328 -213 -395 -413 -31 -92 -39 -298 -16 -403
21 -94 80 -216 137 -284 82 -98 218 -182 349 -214 120 -30 372 -11 456 34 l21
12 -38 105 c-22 58 -46 124 -55 147 l-15 42 -52 -27 c-46 -24 -64 -27 -147
-27 -79 0 -103 4 -142 23 -143 71 -218 241 -190 433 21 148 103 259 218 296
30 9 53 20 52 23 -2 4 -25 68 -52 143 -28 76 -52 137 -55 136 -3 0 -37 -12
-76 -26z"/>
<path d="M1676 1648 c-44 -62 18 -133 85 -98 10 6 19 15 19 20 0 5 -13 2 -28
-7 -34 -20 -58 -13 -74 21 -24 53 41 99 84 59 10 -9 18 -11 18 -5 0 6 -9 16
-19 22 -32 17 -69 12 -85 -12z"/>
<path d="M1886 1648 c-33 -46 -4 -108 49 -108 14 0 34 9 45 20 11 11 20 31 20
45 0 57 -83 88 -114 43z m82 0 c17 -17 15 -73 -2 -88 -23 -18 -59 -8 -75 21
-13 24 -13 29 2 53 19 28 54 35 75 14z"/>
<path d="M2093 1605 c0 -38 2 -53 4 -32 2 20 2 52 0 70 -2 17 -4 1 -4 -38z"/>
<path d="M2202 1603 l1 -68 6 55 6 55 24 -38 c13 -21 25 -36 28 -33 5 5 -54
96 -62 96 -3 0 -4 -30 -3 -67z"/>
<path d="M2279 1620 c-1 -27 -2 -55 -3 -62 -1 -6 5 -13 12 -15 9 -4 12 13 12
61 0 77 -19 91 -21 16z"/>
<path d="M2390 1605 c0 -37 4 -65 10 -65 6 0 10 13 10 29 0 23 5 31 23 34 l22
4 -22 2 c-17 1 -23 7 -23 25 0 19 6 26 28 29 22 3 20 4 -10 6 l-38 1 0 -65z"/>
<path d="M2552 1620 c-2 -60 9 -80 44 -80 34 0 45 23 41 82 l-3 53 -2 -58 c-2
-43 -6 -59 -18 -64 -30 -11 -49 12 -55 68 l-6 54 -1 -55z"/>
<path d="M2744 1655 c-10 -24 4 -45 36 -56 16 -6 30 -17 30 -25 0 -21 -29 -29
-51 -15 -12 7 -19 8 -19 1 0 -16 27 -23 56 -16 37 10 29 47 -14 65 -20 9 -32
21 -30 30 4 18 48 28 48 12 0 -6 5 -11 11 -11 8 0 8 5 -1 15 -7 8 -23 15 -37
15 -13 0 -26 -7 -29 -15z"/>
<path d="M2910 1605 c0 -37 4 -65 10 -65 6 0 10 28 10 65 0 37 -4 65 -10 65
-6 0 -10 -28 -10 -65z"/>
<path d="M3037 1652 c-38 -42 -10 -112 45 -112 59 0 84 89 34 122 -20 14 -63
8 -79 -10z m74 -2 c38 -21 15 -100 -28 -100 -44 0 -69 63 -37 94 18 19 38 20
65 6z"/>
<path d="M3242 1603 l1 -68 6 55 6 55 24 -38 c13 -21 25 -36 28 -33 5 5 -54
96 -62 96 -3 0 -4 -30 -3 -67z"/>
<path d="M3319 1620 c-1 -27 -2 -55 -3 -62 -1 -6 5 -13 12 -15 9 -4 12 13 12
61 0 77 -19 91 -21 16z"/>
</g>
</svg>
