<?xml version="1.0" standalone="no"?>
<!DOCTYPE svg PUBLIC "-//W3C//DTD SVG 20010904//EN"
 "http://www.w3.org/TR/2001/REC-SVG-20010904/DTD/svg10.dtd">
<svg version="1.0" xmlns="http://www.w3.org/2000/svg"
 width="500.000000pt" height="500.000000pt" viewBox="0 0 500.000000 500.000000"
 preserveAspectRatio="xMidYMid meet">

<g transform="translate(0.000000,500.000000) scale(0.100000,-0.100000)"
fill="#000000" stroke="none">
<path d="M0 2500 l0 -2500 2500 0 2500 0 0 2500 0 2500 -2500 0 -2500 0 0
-2500z m2373 1319 c15 -18 17 -44 17 -181 l0 -159 -27 3 -28 3 -5 149 c-4 122
-8 151 -21 159 -9 6 -24 7 -33 4 -14 -6 -16 -43 -16 -372 l0 -366 33 3 32 3 3
153 3 152 29 0 30 0 0 -159 0 -159 -31 -26 c-41 -35 -97 -35 -136 -2 l-28 24
-3 363 c-2 248 1 372 8 390 25 60 129 71 173 18z m455 -1 c-3 -20 -10 -23 -50
-26 l-48 -3 0 -170 0 -169 45 0 c41 0 45 -2 45 -24 0 -22 -5 -25 -42 -28 l-43
-3 -5 -190 -5 -190 -27 -3 -28 -3 0 415 0 416 81 0 c78 0 80 -1 77 -22z m165
-1325 c-265 -2 -701 -2 -970 0 -268 1 -51 2 482 2 534 0 753 -1 488 -2z m-855
-419 c19 -13 22 -24 22 -90 0 -58 -3 -74 -15 -74 -11 0 -15 17 -17 73 -2 56
-6 72 -18 72 -13 0 -15 -26 -15 -175 0 -149 2 -175 15 -175 12 0 16 16 18 73
2 55 6 72 17 72 12 0 15 -16 15 -73 0 -80 -9 -97 -50 -97 -47 0 -50 11 -50
201 0 172 1 178 22 193 12 9 25 16 28 16 3 0 16 -7 28 -16z m242 -13 c6 -11
10 -89 10 -181 0 -92 -4 -170 -10 -181 -12 -22 -59 -26 -78 -7 -8 8 -12 64
-12 188 0 124 4 180 12 188 19 19 66 15 78 -7z m170 -181 c0 -171 -2 -200 -15
-200 -13 0 -15 29 -15 200 0 171 2 200 15 200 13 0 15 -29 15 -200z m161 198
c0 -2 9 -52 19 -113 l18 -110 1 113 c1 92 4 112 16 112 13 0 15 -29 15 -200 0
-168 -2 -200 -15 -200 -8 0 -16 13 -20 33 -3 17 -11 70 -19 117 l-14 85 -1
-117 c-1 -98 -4 -118 -16 -118 -13 0 -15 29 -15 200 0 171 2 200 15 200 8 0
15 -1 16 -2z m39 -503 c0 -8 -7 -15 -15 -15 -8 0 -15 7 -15 15 0 8 7 15 15 15
8 0 15 -7 15 -15z m-172 -110 c2 -51 0 -66 -10 -63 -8 3 -14 26 -16 62 -2 39
-7 56 -15 53 -22 -7 -18 -55 13 -165 21 -73 30 -126 28 -158 -3 -48 -4 -49
-37 -52 -43 -4 -51 8 -51 81 0 43 3 57 15 57 10 0 15 -15 17 -57 2 -34 8 -58
16 -61 20 -6 14 68 -14 164 -14 49 -28 115 -31 146 -5 54 -4 58 18 67 48 17
64 1 67 -74z m-440 63 c-3 -7 -14 -14 -26 -16 -20 -3 -22 -9 -22 -83 0 -72 2
-79 20 -79 11 0 20 -4 20 -9 0 -5 -9 -11 -20 -14 -18 -5 -20 -14 -20 -96 0
-74 -3 -91 -15 -91 -13 0 -15 29 -15 200 l0 200 41 0 c28 0 39 -4 37 -12z
m154 -175 c3 -159 5 -188 18 -188 13 0 15 29 18 188 2 157 5 187 17 187 13 0
15 -28 15 -181 0 -105 -4 -188 -10 -200 -12 -22 -59 -26 -78 -7 -8 8 -12 67
-12 200 0 159 2 188 15 188 12 0 15 -30 17 -187z m458 -13 c0 -171 -2 -200
-15 -200 -13 0 -15 29 -15 200 0 171 2 200 15 200 13 0 15 -29 15 -200z m220
181 c6 -11 10 -89 10 -181 0 -92 -4 -170 -10 -181 -12 -22 -59 -26 -78 -7 -17
17 -17 359 0 376 19 19 66 15 78 -7z m179 -48 c28 -175 29 -176 30 -50 1 97 4
117 16 117 13 0 15 -29 15 -200 0 -170 -2 -200 -15 -200 -17 0 -20 12 -39 135
l-14 90 -1 -112 c-1 -93 -4 -113 -16 -113 -13 0 -15 29 -15 200 0 165 2 200
14 200 10 0 18 -21 25 -67z"/>
<path d="M2325 2048 c-3 -8 -4 -88 -3 -178 3 -139 5 -165 18 -165 13 0 15 26
15 174 0 131 -3 175 -12 178 -7 3 -15 -2 -18 -9z"/>
<path d="M2915 1508 c-3 -8 -4 -88 -3 -178 3 -139 5 -165 18 -165 13 0 15 26
15 174 0 131 -3 175 -12 178 -7 3 -15 -2 -18 -9z"/>
</g>
</svg>
